# xmcd
#
# Track frame offsets:
#	150
#	22304
#	47407
#	71932
#	86493
#	90705
#	108205
#	130735
#	149334
#	172442
#	185352
#
# Disc length: 2713 seconds
# Revision: 0
# Processed by: cddbd v1.5.2PL0 Copyright (c) Steve Scherf et al.
# Submitted via: dBpowerAMP V12.0
#
DISCID=9e0a970b
DTITLE=Antoine Holler - Love in stereo
DYEAR=2009
DGENRE=Blues
TTITLE0=Reload The Bomb
TTITLE1=Power Against The Law
TTITLE2=Old Anxiety
TTITLE3=Money Won't Bring You Pride
TTITLE4=Interlude
TTITLE5=Love In Stereo
TTITLE6=Looking For The Highway
TTITLE7=Music Makes Me Higher
TTITLE8=That Calms Me Down
TTITLE9=Introducing The Moon
TTITLE10=Easy Way, Easy Go
EXTD=
EXTT0=
EXTT1=
EXTT2=
EXTT3=
EXTT4=
EXTT5=
EXTT6=
EXTT7=
EXTT8=
EXTT9=
EXTT10=
PLAYORDER=
